<?xml version="1.0" encoding="UTF-8" standalone="no"?>
<!DOCTYPE svg PUBLIC "-//W3C//DTD SVG 1.1//EN" "http://www.w3.org/Graphics/SVG/1.1/DTD/svg11.dtd">
<svg xmlns="http://www.w3.org/2000/svg" xmlns:xl="http://www.w3.org/1999/xlink" version="1.1" viewBox="0 0 16 16" width="16pt" height="16pt" xmlns:dc="http://purl.org/dc/elements/1.1/">
  <metadata> Produced by OmniGraffle 7.5 
    <dc:date>2018-01-13 18:03:48 +0000</dc:date>
  </metadata>
  <defs/>
  <g stroke="none" stroke-opacity="1" stroke-dasharray="none" fill="none" fill-opacity="1">
    <title>svg</title>
    <rect fill="white" width="16" height="16"/>
    <g>
      <title>Layer 1</title>
      <path d="M -164313e-19 3.602159 L -164313e-19 12.410177 L 1.8134156 12.410177 L 1.8134156 6.513493 L 1.838088 6.513493 L 5.5019275 12.410177 L 7.438705 12.410177 L 7.438705 3.602159 L 5.625289 3.602159 L 5.625289 9.51118 L 5.600617 9.51118 L 1.924441 3.602159 Z" fill="black"/>
      <path d="M 10.461064 9.486507 L 8.585968 9.486507 C 8.577743 10.029301 8.676432 10.49807 8.882035 10.89283 C 9.087639 11.287589 9.3652 11.612438 9.714726 11.867386 C 10.064253 12.122335 10.46723 12.309431 10.92367 12.428682 C 11.38011 12.547932 11.850936 12.607556 12.33616 12.607556 C 12.936523 12.607556 13.464917 12.537652 13.921357 12.397841 C 14.377797 12.25803 14.760214 12.06271 15.06862 11.811874 C 15.377025 11.561037 15.609354 11.262916 15.765613 10.917502 C 15.921872 10.572088 16 10.197895 16 9.794911 C 16 9.301462 15.895144 8.896429 15.685428 8.5798 C 15.475712 8.26317 15.226935 8.010281 14.93909 7.821126 C 14.651245 7.63197 14.361348 7.494218 14.069391 7.407864 C 13.777434 7.321511 13.549217 7.261887 13.384734 7.22899 C 12.833716 7.0891795 12.387563 6.974043 12.04626 6.8835775 C 11.704958 6.793112 11.437678 6.7026476 11.24441 6.612182 C 11.051143 6.521716 10.921614 6.423028 10.855821 6.316114 C 10.790028 6.2092 10.757132 6.069392 10.757132 5.896685 C 10.757132 5.707529 10.798252 5.551273 10.880493 5.4279106 C 10.962735 5.3045483 11.067591 5.201748 11.195066 5.1195066 C 11.32254 5.037265 11.464404 4.979697 11.620663 4.9468003 C 11.776922 4.913904 11.933178 4.8974557 12.089437 4.8974557 C 12.327937 4.8974557 12.54793 4.918016 12.749422 4.9591365 C 12.950913 5.000257 13.129786 5.0701614 13.286045 5.168851 C 13.442304 5.267541 13.56772 5.4032374 13.662298 5.5759445 C 13.756875 5.7486516 13.812387 5.966588 13.828836 6.229761 L 15.703932 6.229761 C 15.703932 5.719864 15.6073 5.2860465 15.414032 4.928296 C 15.220765 4.5705456 14.959652 4.276537 14.630686 4.0462606 C 14.30172 3.8159845 13.925471 3.649448 13.501928 3.546646 C 13.078384 3.4438443 12.636343 3.392444 12.17579 3.392444 C 11.781031 3.392444 11.386278 3.4459003 10.991519 3.552814 C 10.59676 3.659728 10.243127 3.8242086 9.930609 4.0462606 C 9.618091 4.2683126 9.365203 4.5458734 9.171935 4.8789514 C 8.978668 5.2120294 8.882035 5.6047266 8.882035 6.057055 C 8.882035 6.460038 8.958108 6.803391 9.110254 7.087124 C 9.262401 7.370857 9.461834 7.607298 9.708558 7.796453 C 9.955283 7.985609 10.2349 8.139809 10.547417 8.259059 C 10.859935 8.37831 11.180672 8.479054 11.509638 8.561295 C 11.83038 8.651761 12.147004 8.734001 12.459522 8.808019 C 12.77204 8.882036 13.051656 8.968388 13.298381 9.067078 C 13.545105 9.165768 13.744538 9.289128 13.896685 9.437163 C 14.048831 9.585197 14.124904 9.778462 14.124904 10.016962 C 14.124904 10.239014 14.067335 10.421999 13.952197 10.565921 C 13.83706 10.709844 13.693139 10.822924 13.520432 10.905166 C 13.347725 10.987407 13.162684 11.04292 12.965305 11.071704 C 12.767925 11.100488 12.582884 11.11488 12.410177 11.11488 C 12.155229 11.11488 11.908508 11.08404 11.670008 11.022359 C 11.431507 10.960678 11.223851 10.866102 11.047032 10.738628 C 10.870212 10.611153 10.728348 10.444617 10.621434 10.239013 C 10.51452 10.03341 10.461064 9.782577 10.461064 9.486507 Z" fill="black"/>
    </g>
  </g>
</svg>
