<?xml version="1.0" encoding="UTF-8" standalone="no"?>
<!DOCTYPE svg PUBLIC "-//W3C//DTD SVG 1.1//EN" "http://www.w3.org/Graphics/SVG/1.1/DTD/svg11.dtd">
<svg xmlns="http://www.w3.org/2000/svg" xmlns:xl="http://www.w3.org/1999/xlink" version="1.1" viewBox="0 0 16 16" width="16pt" height="16pt" xmlns:dc="http://purl.org/dc/elements/1.1/">
  <metadata> Produced by OmniGraffle 7.5 
    <dc:date>2018-01-13 12:14:42 +0000</dc:date>
  </metadata>
  <defs/>
  <g stroke="none" stroke-opacity="1" stroke-dasharray="none" fill="none" fill-opacity="1">
    <title>svg</title>
    <g>
      <title>Layer 1</title>
      <path d="M 2.267467 6.2171746 L 4.861188 13.786273 L 7.797476 13.786273 L 7.797476 2.4 L 5.709449 2.4 L 5.709449 9.969098 L 5.530009 9.969098 L 2.936288 2.4 L 35527137e-22 2.4 L 35527137e-22 13.786273 L 2.088027 13.786273 L 2.088027 6.2171746 Z" fill="black"/>
      <path d="M 11.60868 13.888889 C 14.463404 13.888889 15.964174 12.322869 15.964174 10.185903 C 15.964174 8.391505 14.903847 7.314866 13.076824 6.988612 L 11.885996 6.776547 C 10.776731 6.580794 10.319975 6.238227 10.319975 5.455217 C 10.319975 4.558018 10.874608 4.101262 11.96756 4.101262 C 12.99526 4.101262 13.843521 4.5090797 14.447092 5.177901 L 15.833672 3.6281933 C 15.03435 2.6983687 13.696707 2.111111 11.951247 2.111111 C 9.373838 2.111111 7.856756 3.3835026 7.856756 5.569406 C 7.856756 7.2333026 8.72133 8.489381 10.760419 8.831948 L 11.951247 9.027701 C 13.060511 9.207141 13.484642 9.582333 13.484642 10.381656 C 13.484642 11.360419 12.848446 11.898738 11.690243 11.898738 C 10.678855 11.898738 9.651154 11.474608 8.819206 10.561096 L 7.4 12.127116 C 8.264574 13.203755 9.716405 13.888889 11.60868 13.888889 Z" fill="black"/>
    </g>
  </g>
</svg>
